REM MD5 a0bb68cde4a515bb26d1654bf3353090
FILE "Dengeki PlayStation D6 (Japan).bin" BINARY
  TRACK 01 MODE2/2352
    INDEX 01 00:00:00
  TRACK 02 AUDIO
    INDEX 00 53:39:07
    INDEX 01 53:41:07
  TRACK 03 AUDIO
    INDEX 00 56:59:17
    INDEX 01 57:01:17
  TRACK 04 AUDIO
    INDEX 00 59:07:11
    INDEX 01 59:09:11
  TRACK 05 AUDIO
    INDEX 00 64:43:08
    INDEX 01 64:45:08
REM LEADOUT 70:29:56
